Dinish-Regular.ufo
<glyph name="dollar" format="2">
  <advance width="467"/>
  <unicode hex="0024"/>
  <outline>
    <contour>
      <point x="257" y="30" type="curve"/>
      <point x="257" y="-60" type="line"/>
      <point x="198" y="-60" type="line"/>
      <point x="198" y="29" type="line"/>
      <point x="91.779" y="39.8056"/>
      <point x="41.3272" y="112.868"/>
      <point x="34" y="214" type="curve"/>
      <point x="104" y="214" type="line"/>
      <point x="108.913" y="154.606"/>
      <point x="134.947" y="105.648"/>
      <point x="198" y="94" type="curve"/>
      <point x="198" y="330" type="line"/>
      <point x="190" y="331" type="line"/>
      <point x="96.5518" y="347.658"/>
      <point x="45" y="402.164"/>
      <point x="45" y="498" type="curve" smooth="yes"/>
      <point x="45" y="593.11"/>
      <point x="101.451" y="664.533"/>
      <point x="198" y="675" type="curve"/>
      <point x="198" y="759" type="line"/>
      <point x="257" y="759" type="line"/>
      <point x="257" y="676" type="line"/>
      <point x="356.722" y="664.696"/>
      <point x="403.475" y="593.147"/>
      <point x="412" y="499" type="curve"/>
      <point x="341" y="499" type="line"/>
      <point x="336.834" y="553.8"/>
      <point x="315.101" y="599.676"/>
      <point x="257" y="611" type="curve"/>
      <point x="257" y="387" type="line"/>
      <point x="361.138" y="369.545"/>
      <point x="421" y="322.779"/>
      <point x="421" y="211" type="curve" smooth="yes"/>
      <point x="421" y="107.703"/>
      <point x="359.941" y="40.0623"/>
    </contour>
    <contour>
      <point x="198" y="399" type="curve"/>
      <point x="198" y="610" type="line"/>
      <point x="140.384" y="599.372"/>
      <point x="117" y="558.838"/>
      <point x="117" y="503" type="curve" smooth="yes"/>
      <point x="117" y="446.414"/>
      <point x="143.617" y="413.079"/>
    </contour>
    <contour>
      <point x="349" y="206" type="curve" smooth="yes"/>
      <point x="349" y="273.872"/>
      <point x="320.498" y="301.161"/>
      <point x="257" y="317" type="curve"/>
      <point x="257" y="93" type="line"/>
      <point x="320.959" y="101.222"/>
      <point x="349" y="144.165"/>
    </contour>
  </outline>
</glyph>
<glyph name="parenleft" format="2">
  <advance width="294"/>
  <unicode hex="0028"/>
  <outline>
    <contour>
      <point x="60" y="336" type="curve" smooth="yes"/>
      <point x="60" y="487.039"/>
      <point x="103.173" y="629.563"/>
      <point x="182" y="758" type="curve"/>
      <point x="234" y="758" type="line"/>
      <point x="167.894" y="627.77"/>
      <point x="131" y="482.301"/>
      <point x="131" y="336" type="curve" smooth="yes"/>
      <point x="131" y="189.404"/>
      <point x="166.908" y="44.1901"/>
      <point x="234" y="-86" type="curve"/>
      <point x="181" y="-86" type="line"/>
      <point x="103.16" y="42.751"/>
      <point x="60" y="185.155"/>
    </contour>
  </outline>
</glyph>
<glyph name="period" format="2">
  <advance width="198"/>
  <unicode hex="002E"/>
  <outline>
    <contour>
      <point x="54" y="94" type="line"/>
      <point x="144" y="94" type="line"/>
      <point x="144" y="0" type="line"/>
      <point x="54" y="0" type="line"/>
    </contour>
  </outline>
</glyph>
<glyph name="five" format="2">
  <advance width="495"/>
  <unicode hex="0035"/>
  <outline>
    <contour>
      <point x="68" y="167" type="curve"/>
      <point x="139" y="167" type="line"/>
      <point x="138.79" y="96.2835"/>
      <point x="174.26" y="57"/>
      <point x="246" y="57" type="curve" smooth="yes"/>
      <point x="343.487" y="57"/>
      <point x="353.338" y="133.771"/>
      <point x="353.338" y="212.15" type="curve" smooth="yes"/>
      <point x="353.338" y="351.281"/>
      <point x="329.723" y="391"/>
      <point x="247" y="391" type="curve" smooth="yes"/>
      <point x="197.792" y="391"/>
      <point x="160.159" y="365.945"/>
      <point x="144" y="319" type="curve"/>
      <point x="79" y="319" type="line"/>
      <point x="79" y="707" type="line"/>
      <point x="417" y="707" type="line"/>
      <point x="417" y="638" type="line"/>
      <point x="147" y="638" type="line"/>
      <point x="147" y="413" type="line"/>
      <point x="173.084" y="443.013"/>
      <point x="217.885" y="459"/>
      <point x="257" y="459" type="curve" smooth="yes"/>
      <point x="381.454" y="459"/>
      <point x="428" y="375.033"/>
      <point x="428" y="261" type="curve" smooth="yes"/>
      <point x="428" y="184" type="line" smooth="yes"/>
      <point x="428" y="68.7412"/>
      <point x="367.062" y="-10"/>
      <point x="247" y="-10" type="curve" smooth="yes"/>
      <point x="130.847" y="-10"/>
      <point x="67.8813" y="49.9858"/>
    </contour>
  </outline>
</glyph>
<glyph name="at" format="2">
  <advance width="892"/>
  <unicode hex="0040"/>
  <outline>
    <contour>
      <point x="60" y="325" type="line" smooth="yes"/>
      <point x="60" y="550.843"/>
      <point x="221.451" y="707"/>
      <point x="446" y="707" type="curve" smooth="yes"/>
      <point x="669.028" y="707"/>
      <point x="833" y="552.206"/>
      <point x="833" y="327" type="curve" smooth="yes"/>
      <point x="833" y="258" type="line" smooth="yes"/>
      <point x="833" y="158.688"/>
      <point x="793.965" y="57"/>
      <point x="678" y="57" type="curve" smooth="yes"/>
      <point x="625.387" y="57"/>
      <point x="580.544" y="80.4512"/>
      <point x="559" y="130" type="curve"/>
      <point x="536.94" y="77.0074"/>
      <point x="481.777" y="57"/>
      <point x="428" y="57" type="curve" smooth="yes"/>
      <point x="282.774" y="57"/>
      <point x="274.94" y="175.283"/>
      <point x="274.94" y="285.166" type="curve" smooth="yes"/>
      <point x="274.94" y="325" type="line" smooth="yes"/>
      <point x="274.94" y="425.997"/>
      <point x="311.648" y="511"/>
      <point x="426" y="511" type="curve" smooth="yes"/>
      <point x="470.439" y="511"/>
      <point x="516.909" y="494.492"/>
      <point x="541" y="455" type="curve"/>
      <point x="541" y="501" type="line"/>
      <point x="607" y="501" type="line"/>
      <point x="607" y="205" type="line" smooth="yes"/>
      <point x="607" y="158.505"/>
      <point x="626.069" y="116"/>
      <point x="679" y="116" type="curve" smooth="yes"/>
      <point x="751.513" y="116"/>
      <point x="760.54" y="197.737"/>
      <point x="760.54" y="265.097" type="curve" smooth="yes"/>
      <point x="760.54" y="326" type="line" smooth="yes"/>
      <point x="760.54" y="517.948"/>
      <point x="638.376" y="641"/>
      <point x="446" y="641" type="curve" smooth="yes"/>
      <point x="254.988" y="641"/>
      <point x="133" y="517.591"/>
      <point x="133" y="327" type="curve" smooth="yes"/>
      <point x="133" y="254" type="line" smooth="yes"/>
      <point x="133" y="63.9323"/>
      <point x="253.971" y="-65"/>
      <point x="446" y="-65" type="curve" smooth="yes"/>
      <point x="526.396" y="-65"/>
      <point x="595.932" y="-50.7416"/>
      <point x="667" y="-12" type="curve"/>
      <point x="691" y="-71" type="line"/>
      <point x="610.433" y="-116.737"/>
      <point x="538.013" y="-131"/>
      <point x="446" y="-131" type="curve" smooth="yes"/>
      <point x="217.942" y="-131"/>
      <point x="60" y="27.0686"/>
      <point x="60" y="255" type="curve" smooth="yes"/>
    </contour>
    <contour>
      <point x="538" y="243" type="curve" smooth="yes"/>
      <point x="538" y="327" type="line" smooth="yes"/>
      <point x="538" y="392.243"/>
      <point x="517.164" y="452"/>
      <point x="442" y="452" type="curve" smooth="yes"/>
      <point x="365.283" y="452"/>
      <point x="346" y="389.777"/>
      <point x="346" y="324" type="curve" smooth="yes"/>
      <point x="346" y="248" type="line" smooth="yes"/>
      <point x="346" y="182.137"/>
      <point x="363.747" y="117"/>
      <point x="442" y="117" type="curve" smooth="yes"/>
      <point x="517.633" y="117"/>
      <point x="538" y="177.607"/>
    </contour>
  </outline>
</glyph>
<glyph name="A" format="2">
  <advance width="591"/>
  <unicode hex="0041"/>
  <anchor x="295" y="707" name="top"/>
  <outline>
    <contour>
      <point x="445" y="170" type="line"/>
      <point x="145" y="170" type="line"/>
      <point x="86" y="0" type="line"/>
      <point x="7" y="0" type="line"/>
      <point x="264" y="707" type="line"/>
      <point x="327" y="707" type="line"/>
      <point x="584" y="0" type="line"/>
      <point x="505" y="0" type="line"/>
    </contour>
    <contour>
      <point x="424" y="233" type="line"/>
      <point x="295" y="602" type="line"/>
      <point x="167" y="233" type="line"/>
    </contour>
  </outline>
  <guideline angle="90" name="vertical" x="295" y="0"/>
  <guideline angle="0" name="horizontal" x="0" y="707"/>
</glyph>
<glyph name="D" format="2">
  <advance width="635"/>
  <unicode hex="0044"/>
  <anchor x="275" y="707" name="top"/>
  <outline>
    <contour>
      <point x="82" y="707" type="line"/>
      <point x="324" y="707" type="line" smooth="yes"/>
      <point x="496.387" y="707"/>
      <point x="568" y="597.825"/>
      <point x="568" y="436" type="curve" smooth="yes"/>
      <point x="568" y="270" type="line" smooth="yes"/>
      <point x="568" y="108.43"/>
      <point x="495.739" y="0"/>
      <point x="324" y="0" type="curve" smooth="yes"/>
      <point x="82" y="0" type="line"/>
    </contour>
    <contour>
      <point x="325" y="68" type="line" smooth="yes"/>
      <point x="450.761" y="68"/>
      <point x="493" y="152.093"/>
      <point x="493" y="266" type="curve" smooth="yes"/>
      <point x="493" y="433" type="line" smooth="yes"/>
      <point x="493" y="547.386"/>
      <point x="454.196" y="639"/>
      <point x="325" y="639" type="curve" smooth="yes"/>
      <point x="158" y="639" type="line"/>
      <point x="158" y="68" type="line"/>
    </contour>
  </outline>
  <guideline angle="90" name="vertical" x="275" y="0"/>
  <guideline angle="0" name="horizontal" x="0" y="707"/>
</glyph>
<glyph name="G" format="2">
  <advance width="624"/>
  <unicode hex="0047"/>
  <outline>
    <contour>
      <point x="68" y="262" type="curve" smooth="yes"/>
      <point x="68" y="445" type="line" smooth="yes"/>
      <point x="68" y="607.017"/>
      <point x="142.295" y="716"/>
      <point x="314" y="716" type="curve" smooth="yes"/>
      <point x="446.954" y="716"/>
      <point x="555.808" y="639.328"/>
      <point x="555" y="498" type="curve"/>
      <point x="480" y="498" type="line"/>
      <point x="481.696" y="598.607"/>
      <point x="409.073" y="648"/>
      <point x="315" y="648" type="curve" smooth="yes"/>
      <point x="181.826" y="648"/>
      <point x="142" y="561.736"/>
      <point x="142" y="442" type="curve" smooth="yes"/>
      <point x="142" y="258" type="line" smooth="yes"/>
      <point x="142" y="140.69"/>
      <point x="189.117" y="60"/>
      <point x="316" y="60" type="curve" smooth="yes"/>
      <point x="469.452" y="60"/>
      <point x="482.019" y="163.503"/>
      <point x="482.019" y="289.383" type="curve" smooth="yes"/>
      <point x="482" y="299" type="line"/>
      <point x="313" y="299" type="line"/>
      <point x="313" y="364" type="line"/>
      <point x="557" y="364" type="line"/>
      <point x="557" y="258" type="line" smooth="yes"/>
      <point x="557" y="95.814"/>
      <point x="485.319" y="-8"/>
      <point x="314" y="-8" type="curve" smooth="yes"/>
      <point x="142.991" y="-8"/>
      <point x="68" y="100.279"/>
    </contour>
  </outline>
</glyph>
<glyph name="J" format="2">
  <advance width="320"/>
  <unicode hex="004A"/>
  <outline>
    <contour>
      <point x="33" y="68" type="line"/>
      <point x="105.567" y="68"/>
      <point x="156" y="55.8266"/>
      <point x="156" y="145" type="curve" smooth="yes"/>
      <point x="156" y="707" type="line"/>
      <point x="230" y="707" type="line"/>
      <point x="230" y="136" type="line" smooth="yes"/>
      <point x="230" y="51.0542"/>
      <point x="190.139" y="0"/>
      <point x="102" y="0" type="curve" smooth="yes"/>
      <point x="33" y="0" type="line"/>
    </contour>
  </outline>
</glyph>
<glyph name="U" format="2">
  <advance width="650"/>
  <unicode hex="0055"/>
  <outline>
    <contour>
      <point x="82" y="230" type="curve" smooth="yes"/>
      <point x="82" y="707" type="line"/>
      <point x="158" y="707" type="line"/>
      <point x="158" y="237" type="line" smooth="yes"/>
      <point x="158" y="134.465"/>
      <point x="220.318" y="60"/>
      <point x="326" y="60" type="curve" smooth="yes"/>
      <point x="429.564" y="60"/>
      <point x="494" y="136.484"/>
      <point x="494" y="237" type="curve" smooth="yes"/>
      <point x="494" y="707" type="line"/>
      <point x="568" y="707" type="line"/>
      <point x="568" y="230" type="line" smooth="yes"/>
      <point x="568" y="90.2328"/>
      <point x="463.804" y="-6"/>
      <point x="326" y="-6" type="curve" smooth="yes"/>
      <point x="189.679" y="-6"/>
      <point x="82" y="91.1154"/>
    </contour>
  </outline>
</glyph>
<glyph name="V" format="2">
  <advance width="535"/>
  <unicode hex="0056"/>
  <anchor x="268" y="707" name="top"/>
  <outline>
    <contour>
      <point x="7" y="707" type="line"/>
      <point x="85" y="707" type="line"/>
      <point x="268" y="121" type="line"/>
      <point x="451" y="707" type="line"/>
      <point x="528" y="707" type="line"/>
      <point x="298" y="0" type="line"/>
      <point x="237" y="0" type="line"/>
    </contour>
  </outline>
  <guideline angle="90" name="vertical" x="268" y="0"/>
  <guideline angle="0" name="horizontal" x="0" y="707"/>
</glyph>
<glyph name="W" format="2">
  <advance width="815"/>
  <unicode hex="0057"/>
  <outline>
    <contour>
      <point x="808" y="707" type="line"/>
      <point x="631" y="0" type="line"/>
      <point x="564" y="0" type="line"/>
      <point x="408" y="613" type="line"/>
      <point x="255" y="0" type="line"/>
      <point x="188" y="0" type="line"/>
      <point x="7" y="707" type="line"/>
      <point x="80" y="707" type="line"/>
      <point x="223" y="121" type="line"/>
      <point x="361" y="707" type="line"/>
      <point x="457" y="707" type="line"/>
      <point x="600" y="121" type="line"/>
      <point x="738" y="707" type="line"/>
    </contour>
  </outline>
</glyph>
<glyph name="c" format="2">
  <advance width="515"/>
  <unicode hex="0063"/>
  <outline>
    <contour>
      <point x="60" y="207" type="curve" smooth="yes"/>
      <point x="60" y="313" type="line" smooth="yes"/>
      <point x="60" y="445.586"/>
      <point x="125.105" y="526"/>
      <point x="262" y="526" type="curve" smooth="yes"/>
      <point x="373.294" y="526"/>
      <point x="455.556" y="465.031"/>
      <point x="455" y="348" type="curve"/>
      <point x="387" y="348" type="line"/>
      <point x="388.111" y="424.081"/>
      <point x="337.744" y="463"/>
      <point x="265" y="463" type="curve" smooth="yes"/>
      <point x="163.519" y="463"/>
      <point x="130" y="402.571"/>
      <point x="130" y="309" type="curve" smooth="yes"/>
      <point x="130" y="211" type="line" smooth="yes"/>
      <point x="130" y="118.027"/>
      <point x="162.323" y="56"/>
      <point x="264" y="56" type="curve" smooth="yes"/>
      <point x="337.041" y="56"/>
      <point x="388.155" y="94.2054"/>
      <point x="387" y="171" type="curve"/>
      <point x="455" y="171" type="line"/>
      <point x="455" y="167" type="line" smooth="yes"/>
      <point x="455" y="54.5655"/>
      <point x="368.926" y="-6"/>
      <point x="263" y="-6" type="curve" smooth="yes"/>
      <point x="125.582" y="-6"/>
      <point x="60" y="73.5175"/>
    </contour>
  </outline>
</glyph>
<glyph name="e" format="2">
  <advance width="515"/>
  <unicode hex="0065"/>
  <outline>
    <contour>
      <point x="130" y="246" type="line"/>
      <point x="130" y="215" type="line" smooth="yes"/>
      <point x="130" y="123.914"/>
      <point x="164.525" y="56"/>
      <point x="265" y="56" type="curve" smooth="yes"/>
      <point x="325.537" y="56"/>
      <point x="390.275" y="91.0508"/>
      <point x="383" y="160" type="curve"/>
      <point x="451" y="160" type="line"/>
      <point x="451" y="155" type="line" smooth="yes"/>
      <point x="451" y="44.8351"/>
      <point x="359.98" y="-6"/>
      <point x="260" y="-6" type="curve" smooth="yes"/>
      <point x="121.104" y="-6"/>
      <point x="60" y="86.7925"/>
      <point x="60" y="217" type="curve" smooth="yes"/>
      <point x="60" y="307" type="line" smooth="yes"/>
      <point x="60" y="434.975"/>
      <point x="122.172" y="526"/>
      <point x="258" y="526" type="curve" smooth="yes"/>
      <point x="394.834" y="526"/>
      <point x="455" y="435.486"/>
      <point x="455" y="307" type="curve" smooth="yes"/>
      <point x="455" y="246" type="line"/>
    </contour>
    <contour>
      <point x="130" y="298" type="line"/>
      <point x="385" y="298" type="line"/>
      <point x="385" y="316" type="line" smooth="yes"/>
      <point x="385" y="401.727"/>
      <point x="351.621" y="463"/>
      <point x="258" y="463" type="curve" smooth="yes"/>
      <point x="156.301" y="463"/>
      <point x="129.979" y="391.468"/>
      <point x="129.979" y="302.61" type="curve" smooth="yes"/>
    </contour>
  </outline>
</glyph>
<glyph name="t" format="2">
  <advance width="348"/>
  <unicode hex="0074"/>
  <anchor x="151" y="671" name="top"/>
  <outline>
    <contour>
      <point x="186" y="464" type="line"/>
      <point x="186" y="132" type="line" smooth="yes"/>
      <point x="186" y="65.0891"/>
      <point x="236.675" y="60.6983"/>
      <point x="294" y="61" type="curve"/>
      <point x="294" y="0" type="line"/>
      <point x="242" y="0" type="line" smooth="yes"/>
      <point x="161.546" y="0"/>
      <point x="116" y="49.6531"/>
      <point x="116" y="129" type="curve" smooth="yes"/>
      <point x="116" y="464" type="line"/>
      <point x="35" y="464" type="line"/>
      <point x="35" y="519" type="line"/>
      <point x="116" y="519" type="line"/>
      <point x="116" y="638" type="line"/>
      <point x="186" y="671" type="line"/>
      <point x="186" y="519" type="line"/>
      <point x="303" y="519" type="line"/>
      <point x="303" y="464" type="line"/>
    </contour>
  </outline>
  <guideline angle="90" name="vertical" x="151" y="0"/>
  <guideline angle="0" name="horizontal" x="0" y="671"/>
</glyph>
<glyph name="w" format="2">
  <advance width="731"/>
  <unicode hex="0077"/>
  <anchor x="365" y="519" name="top"/>
  <outline>
    <contour>
      <point x="14" y="519" type="line"/>
      <point x="90" y="519" type="line"/>
      <point x="207" y="103" type="line"/>
      <point x="336" y="519" type="line"/>
      <point x="394" y="519" type="line"/>
      <point x="523" y="103" type="line"/>
      <point x="641" y="519" type="line"/>
      <point x="717" y="519" type="line"/>
      <point x="559" y="0" type="line"/>
      <point x="496" y="0" type="line"/>
      <point x="365" y="419" type="line"/>
      <point x="234" y="0" type="line"/>
      <point x="172" y="0" type="line"/>
    </contour>
  </outline>
  <guideline angle="90" name="vertical" x="365" y="0"/>
  <guideline angle="0" name="horizontal" x="0" y="519"/>
</glyph>
<glyph name="x" format="2">
  <advance width="431"/>
  <unicode hex="0078"/>
  <anchor x="215" y="519" name="top"/>
  <outline>
    <contour>
      <point x="342" y="0" type="line"/>
      <point x="215" y="208" type="line"/>
      <point x="89" y="0" type="line"/>
      <point x="14" y="0" type="line"/>
      <point x="178" y="267" type="line"/>
      <point x="25" y="519" type="line"/>
      <point x="99" y="519" type="line"/>
      <point x="217" y="327" type="line"/>
      <point x="332" y="519" type="line"/>
      <point x="407" y="519" type="line"/>
      <point x="251" y="271" type="line"/>
      <point x="417" y="0" type="line"/>
    </contour>
  </outline>
  <guideline angle="90" name="vertical" x="215" y="0"/>
  <guideline angle="0" name="horizontal" x="0" y="519"/>
</glyph>
<glyph name="y" format="2">
  <advance width="449"/>
  <unicode hex="0079"/>
  <anchor x="217" y="519" name="top"/>
  <outline>
    <contour>
      <point x="435" y="519" type="line"/>
      <point x="236" y="-56" type="line" smooth="yes"/>
      <point x="206.663" y="-140.769"/>
      <point x="157.063" y="-156.012"/>
      <point x="73.3195" y="-156.012" type="curve" smooth="yes"/>
      <point x="69" y="-156" type="line"/>
      <point x="69" y="-92" type="line"/>
      <point x="74.3395" y="-92.0228" type="line" smooth="yes"/>
      <point x="159.223" y="-92.0228"/>
      <point x="168.638" y="-70.8621"/>
      <point x="193" y="5" type="curve"/>
      <point x="14" y="519" type="line"/>
      <point x="90" y="519" type="line"/>
      <point x="226" y="106" type="line"/>
      <point x="362" y="519" type="line"/>
    </contour>
  </outline>
  <guideline angle="90" name="vertical" x="217" y="0"/>
  <guideline angle="0" name="horizontal" x="0" y="519"/>
</glyph>
<glyph name="cent" format="2">
  <advance width="515"/>
  <unicode hex="00A2"/>
  <outline>
    <contour>
      <point x="60" y="207" type="curve" smooth="yes"/>
      <point x="60" y="313" type="line" smooth="yes"/>
      <point x="60" y="424.985"/>
      <point x="103.19" y="507.738"/>
      <point x="222" y="524" type="curve"/>
      <point x="222" y="622" type="line"/>
      <point x="282" y="622" type="line"/>
      <point x="282" y="525" type="line"/>
      <point x="388.308" y="519.024"/>
      <point x="455" y="456.512"/>
      <point x="455" y="348" type="curve"/>
      <point x="387" y="348" type="line"/>
      <point x="387" y="428.784"/>
      <point x="337.121" y="463.48"/>
      <point x="260.436" y="463.48" type="curve" smooth="yes"/>
      <point x="161.76" y="463.48"/>
      <point x="130" y="397.323"/>
      <point x="130" y="309" type="curve" smooth="yes"/>
      <point x="130" y="211" type="line" smooth="yes"/>
      <point x="130" y="122.531"/>
      <point x="160.407" y="55.4306"/>
      <point x="259.892" y="55.4306" type="curve" smooth="yes"/>
      <point x="335.732" y="55.4306"/>
      <point x="387" y="90.897"/>
      <point x="387" y="171" type="curve"/>
      <point x="455" y="171" type="line"/>
      <point x="455" y="167" type="line" smooth="yes"/>
      <point x="455" y="62.6604"/>
      <point x="382.508" y="0.655994"/>
      <point x="282" y="-5" type="curve"/>
      <point x="282" y="-102" type="line"/>
      <point x="222" y="-102" type="line"/>
      <point x="222" y="-3" type="line"/>
      <point x="105.235" y="13.3001"/>
      <point x="60" y="96.7122"/>
    </contour>
  </outline>
</glyph>
<glyph name="sterling" format="2">
  <advance width="446"/>
  <unicode hex="00A3"/>
  <outline>
    <contour>
      <point x="413" y="70" type="line"/>
      <point x="413" y="0" type="line"/>
      <point x="55" y="0" type="line"/>
      <point x="55" y="63" type="line"/>
      <point x="95.352" y="88.2118"/>
      <point x="101" y="124.777"/>
      <point x="101" y="169" type="curve" smooth="yes"/>
      <point x="101" y="297" type="line"/>
      <point x="34" y="297" type="line"/>
      <point x="34" y="365" type="line"/>
      <point x="101" y="365" type="line"/>
      <point x="101" y="541" type="line" smooth="yes"/>
      <point x="101" y="639.45"/>
      <point x="151.256" y="717"/>
      <point x="257" y="717" type="curve" smooth="yes"/>
      <point x="351.418" y="717"/>
      <point x="409.022" y="653.912"/>
      <point x="409" y="561" type="curve"/>
      <point x="335" y="561" type="line"/>
      <point x="335.041" y="610.953"/>
      <point x="308.374" y="647"/>
      <point x="256" y="647" type="curve" smooth="yes"/>
      <point x="198.166" y="647"/>
      <point x="177" y="603.828"/>
      <point x="177" y="552" type="curve" smooth="yes"/>
      <point x="177" y="365" type="line"/>
      <point x="319" y="365" type="line"/>
      <point x="319" y="297" type="line"/>
      <point x="177" y="297" type="line"/>
      <point x="177" y="178" type="line" smooth="yes"/>
      <point x="177" y="138.078"/>
      <point x="170.999" y="100.307"/>
      <point x="143" y="70" type="curve"/>
    </contour>
  </outline>
</glyph>
<glyph name="yen" format="2">
  <advance width="464"/>
  <unicode hex="00A5"/>
  <outline>
    <contour>
      <point x="196" y="159" type="line"/>
      <point x="50" y="159" type="line"/>
      <point x="50" y="216" type="line"/>
      <point x="196" y="216" type="line"/>
      <point x="196" y="285" type="line"/>
      <point x="50" y="285" type="line"/>
      <point x="50" y="343" type="line"/>
      <point x="176" y="343" type="line"/>
      <point x="10" y="707" type="line"/>
      <point x="94" y="707" type="line"/>
      <point x="233" y="374" type="line"/>
      <point x="372" y="707" type="line"/>
      <point x="455" y="707" type="line"/>
      <point x="290" y="343" type="line"/>
      <point x="415" y="343" type="line"/>
      <point x="415" y="285" type="line"/>
      <point x="270" y="285" type="line"/>
      <point x="270" y="216" type="line"/>
      <point x="415" y="216" type="line"/>
      <point x="415" y="159" type="line"/>
      <point x="270" y="159" type="line"/>
      <point x="270" y="0" type="line"/>
      <point x="196" y="0" type="line"/>
    </contour>
  </outline>
</glyph>
<glyph name="copyright" format="2">
  <advance width="840"/>
  <unicode hex="00A9"/>
  <outline>
    <contour>
      <point x="68" y="348" type="curve" smooth="yes"/>
      <point x="68" y="556.443"/>
      <point x="209.033" y="707"/>
      <point x="420" y="707" type="curve" smooth="yes"/>
      <point x="631.736" y="707"/>
      <point x="773" y="557.458"/>
      <point x="773" y="348" type="curve" smooth="yes"/>
      <point x="773" y="137.129"/>
      <point x="632.59" y="-10"/>
      <point x="420" y="-10" type="curve" smooth="yes"/>
      <point x="208.349" y="-10"/>
      <point x="68" y="138.367"/>
    </contour>
    <contour>
      <point x="715" y="348" type="curve" smooth="yes"/>
      <point x="715" y="526.921"/>
      <point x="601.892" y="652"/>
      <point x="420" y="652" type="curve" smooth="yes"/>
      <point x="237.238" y="652"/>
      <point x="126" y="527.308"/>
      <point x="126" y="348" type="curve" smooth="yes"/>
      <point x="126" y="168.692"/>
      <point x="237.238" y="44"/>
      <point x="420" y="44" type="curve" smooth="yes"/>
      <point x="601.892" y="44"/>
      <point x="715" y="169.079"/>
    </contour>
    <contour>
      <point x="272" y="311" type="curve" smooth="yes"/>
      <point x="272" y="390" type="line" smooth="yes"/>
      <point x="272" y="490.491"/>
      <point x="319.835" y="550"/>
      <point x="424" y="550" type="curve" smooth="yes"/>
      <point x="510.332" y="550"/>
      <point x="567" y="504.966"/>
      <point x="567" y="416" type="curve"/>
      <point x="514" y="416" type="line"/>
      <point x="514" y="471.531"/>
      <point x="480.43" y="500"/>
      <point x="426" y="500" type="curve" smooth="yes"/>
      <point x="349.753" y="500"/>
      <point x="328" y="456.275"/>
      <point x="328" y="387" type="curve" smooth="yes"/>
      <point x="328" y="314" type="line" smooth="yes"/>
      <point x="328" y="244.725"/>
      <point x="349.753" y="201"/>
      <point x="426" y="201" type="curve" smooth="yes"/>
      <point x="481.266" y="201"/>
      <point x="514" y="230.019"/>
      <point x="514" y="286" type="curve"/>
      <point x="567" y="286" type="line"/>
      <point x="567" y="281" type="line" smooth="yes"/>
      <point x="567" y="194.535"/>
      <point x="505.301" y="152"/>
      <point x="424" y="152" type="curve" smooth="yes"/>
      <point x="319.326" y="152"/>
      <point x="272" y="209.445"/>
    </contour>
  </outline>
</glyph>
<glyph name="ordfeminine" format="2">
  <advance width="337"/>
  <unicode hex="00AA"/>
  <outline>
    <contour>
      <point x="284" y="656" type="curve" smooth="yes"/>
      <point x="284" y="440" type="line"/>
      <point x="220" y="440" type="line"/>
      <point x="220" y="472" type="line"/>
      <point x="197.857" y="445.354"/>
      <point x="174.397" y="436"/>
      <point x="140" y="436" type="curve" smooth="yes"/>
      <point x="75.6335" y="436"/>
      <point x="36" y="470.251"/>
      <point x="36" y="536" type="curve" smooth="yes"/>
      <point x="36" y="639.801"/>
      <point x="147.033" y="628"/>
      <point x="218" y="628" type="curve"/>
      <point x="218" y="659" type="line" smooth="yes"/>
      <point x="218" y="694.852"/>
      <point x="196.852" y="716"/>
      <point x="161" y="716" type="curve" smooth="yes"/>
      <point x="130.599" y="716"/>
      <point x="105" y="701.092"/>
      <point x="105" y="668" type="curve"/>
      <point x="44" y="668" type="line"/>
      <point x="44" y="670" type="line" smooth="yes"/>
      <point x="44" y="738.218"/>
      <point x="100.103" y="766"/>
      <point x="161" y="766" type="curve" smooth="yes"/>
      <point x="233.403" y="766"/>
      <point x="284" y="733.187"/>
    </contour>
    <contour>
      <point x="218" y="553" type="curve" smooth="yes"/>
      <point x="218" y="582" type="line"/>
      <point x="155" y="582" type="line" smooth="yes"/>
      <point x="124.426" y="582"/>
      <point x="99" y="571.386"/>
      <point x="99" y="537" type="curve" smooth="yes"/>
      <point x="99" y="502.746"/>
      <point x="122.545" y="490"/>
      <point x="154" y="490" type="curve" smooth="yes"/>
      <point x="197.026" y="490"/>
      <point x="218" y="509.845"/>
    </contour>
  </outline>
</glyph>
<glyph name="onesuperior" format="2">
  <advance width="227"/>
  <unicode hex="00B9"/>
  <outline>
    <contour>
      <point x="101" y="793" type="line"/>
      <point x="27" y="736" type="line"/>
      <point x="27" y="812" type="line"/>
      <point x="101" y="867" type="line"/>
      <point x="172" y="867" type="line"/>
      <point x="172" y="440" type="line"/>
      <point x="101" y="440" type="line"/>
    </contour>
  </outline>
</glyph>
<glyph name="Ccedilla" format="2">
  <advance width="624"/>
  <unicode hex="00C7"/>
  <outline>
    <contour>
      <point x="482" y="497" type="line"/>
      <point x="482" y="598.948"/>
      <point x="412.704" y="648"/>
      <point x="316" y="648" type="curve" smooth="yes"/>
      <point x="182.477" y="648"/>
      <point x="142" y="562.073"/>
      <point x="142" y="442" type="curve" smooth="yes"/>
      <point x="142" y="258" type="line" smooth="yes"/>
      <point x="142" y="138.77"/>
      <point x="189.487" y="60"/>
      <point x="317" y="60" type="curve" smooth="yes"/>
      <point x="414.043" y="60"/>
      <point x="482" y="110.478"/>
      <point x="482" y="212" type="curve"/>
      <point x="555" y="212" type="line"/>
      <point x="555" y="208" type="line" smooth="yes"/>
      <point x="555" y="90.7695"/>
      <point x="484.673" y="15.892"/>
      <point x="371" y="-4" type="curve"/>
      <point x="322" y="-154" type="line"/>
      <point x="249" y="-154" type="line"/>
      <point x="305" y="-8" type="line"/>
      <point x="136.891" y="-3.38335"/>
      <point x="68" y="104.772"/>
      <point x="68" y="262" type="curve" smooth="yes"/>
      <point x="68" y="445" type="line" smooth="yes"/>
      <point x="68" y="609.362"/>
      <point x="142.03" y="716"/>
      <point x="316" y="716" type="curve" smooth="yes"/>
      <point x="451.44" y="716"/>
      <point x="557" y="639.968"/>
      <point x="557" y="497" type="curve"/>
    </contour>
  </outline>
</glyph>
<glyph name="germandbls" format="2">
  <advance width="517"/>
  <unicode hex="00DF"/>
  <outline>
    <contour>
      <point x="257" y="58.9353" type="line"/>
      <point x="279.089" y="58.9353" type="line" smooth="yes"/>
      <point x="362.279" y="58.9353"/>
      <point x="386" y="96.8895"/>
      <point x="386" y="230" type="curve" smooth="yes"/>
      <point x="386" y="366.898"/>
      <point x="362.752" y="402.039"/>
      <point x="272.187" y="402.039" type="curve" smooth="yes"/>
      <point x="256" y="402.039" type="line"/>
      <point x="256" y="466.054" type="line"/>
      <point x="272.186" y="466.054" type="line" smooth="yes"/>
      <point x="350.2" y="466.054"/>
      <point x="378" y="489.685"/>
      <point x="378" y="556" type="curve" smooth="yes"/>
      <point x="378" y="628.337"/>
      <point x="329.972" y="650"/>
      <point x="265" y="650" type="curve" smooth="yes"/>
      <point x="180.674" y="650"/>
      <point x="146" y="609.953"/>
      <point x="146" y="527" type="curve" smooth="yes"/>
      <point x="146" y="0" type="line"/>
      <point x="77" y="0" type="line"/>
      <point x="77" y="518" type="line" smooth="yes"/>
      <point x="77" y="646.064"/>
      <point x="132.532" y="714"/>
      <point x="264" y="714" type="curve" smooth="yes"/>
      <point x="366.376" y="714"/>
      <point x="449" y="669.807"/>
      <point x="449" y="557" type="curve" smooth="yes"/>
      <point x="449" y="503.526"/>
      <point x="430.756" y="462.396"/>
      <point x="382" y="437" type="curve"/>
      <point x="442.157" y="404.314"/>
      <point x="457" y="363.348"/>
      <point x="457" y="230" type="curve" smooth="yes"/>
      <point x="457" y="42.6549"/>
      <point x="420.878" y="-4.0068"/>
      <point x="275.849" y="-4.0068" type="curve" smooth="yes"/>
      <point x="257" y="-4.0068" type="line"/>
    </contour>
  </outline>
</glyph>
<glyph name="ae" format="2">
  <advance width="817"/>
  <unicode hex="00E6"/>
  <outline>
    <contour>
      <point x="432" y="246" type="line"/>
      <point x="432" y="215" type="line" smooth="yes"/>
      <point x="432" y="122.057"/>
      <point x="463.78" y="56"/>
      <point x="567" y="56" type="curve" smooth="yes"/>
      <point x="634.871" y="56"/>
      <point x="685" y="87.2076"/>
      <point x="685" y="160" type="curve"/>
      <point x="753" y="160" type="line"/>
      <point x="753" y="155" type="line" smooth="yes"/>
      <point x="753" y="46.3598"/>
      <point x="667.912" y="-6"/>
      <point x="568" y="-6" type="curve" smooth="yes"/>
      <point x="500.032" y="-6"/>
      <point x="436.088" y="17.2099"/>
      <point x="399" y="77" type="curve"/>
      <point x="360.205" y="16.0036"/>
      <point x="295.671" y="-6"/>
      <point x="226" y="-6" type="curve" smooth="yes"/>
      <point x="127.641" y="-6"/>
      <point x="48" y="38.3356"/>
      <point x="48" y="146" type="curve" smooth="yes"/>
      <point x="48" y="322.518"/>
      <point x="244.05" y="295"/>
      <point x="362" y="295" type="curve"/>
      <point x="362" y="354" type="line" smooth="yes"/>
      <point x="362" y="429.829"/>
      <point x="319.883" y="468"/>
      <point x="245" y="468" type="curve" smooth="yes"/>
      <point x="183.981" y="468"/>
      <point x="131" y="443.56"/>
      <point x="131" y="375" type="curve"/>
      <point x="63" y="375" type="line"/>
      <point x="63" y="380" type="line" smooth="yes"/>
      <point x="63" y="483.257"/>
      <point x="152.839" y="526"/>
      <point x="244" y="526" type="curve" smooth="yes"/>
      <point x="305.093" y="526"/>
      <point x="367.881" y="511.629"/>
      <point x="404" y="458" type="curve"/>
      <point x="441.518" y="508.787"/>
      <point x="499.043" y="526"/>
      <point x="560" y="526" type="curve" smooth="yes"/>
      <point x="698.136" y="526"/>
      <point x="757" y="436.197"/>
      <point x="757" y="307" type="curve" smooth="yes"/>
      <point x="757" y="246" type="line"/>
    </contour>
    <contour>
      <point x="432" y="298" type="curve"/>
      <point x="686" y="298" type="line"/>
      <point x="686" y="316" type="line" smooth="yes"/>
      <point x="686" y="403.739"/>
      <point x="656.756" y="463"/>
      <point x="560" y="463" type="curve" smooth="yes"/>
      <point x="452.971" y="463"/>
      <point x="432" y="389.108"/>
    </contour>
    <contour>
      <point x="362" y="244" type="line"/>
      <point x="232" y="244" type="line" smooth="yes"/>
      <point x="166.173" y="244"/>
      <point x="118" y="218.839"/>
      <point x="118" y="147" type="curve" smooth="yes"/>
      <point x="118" y="74.7091"/>
      <point x="164.433" y="50"/>
      <point x="231" y="50" type="curve" smooth="yes"/>
      <point x="317.74" y="50"/>
      <point x="362" y="94.2597"/>
      <point x="362" y="181" type="curve" smooth="yes"/>
    </contour>
  </outline>
</glyph>
<glyph name="eogonek" format="2">
  <advance width="515"/>
  <unicode hex="0119"/>
  <outline>
    <component base="e"/>
    <contour>
      <point x="427" y="69" type="curve"/>
      <point x="306" y="-105" type="line"/>
      <point x="340.539" y="-151.566"/>
      <point x="367.945" y="-155.113"/>
      <point x="423" y="-155" type="curve"/>
      <point x="423" y="-217" type="line"/>
      <point x="338.395" y="-215.954"/>
      <point x="265.539" y="-185.878"/>
      <point x="237" y="-100" type="curve"/>
      <point x="260.845" y="-72.378"/>
      <point x="313.693" y="-4.62052"/>
      <point x="338" y="17" type="curve" smooth="yes"/>
      <point x="340.965" y="19.6374"/>
      <point x="418.523" y="64.0472"/>
    </contour>
  </outline>
</glyph>
<glyph name="iogonek" format="2">
  <advance width="239"/>
  <unicode hex="012F"/>
  <outline>
    <component base="i"/>
    <contour>
      <point x="84" y="0" type="line"/>
      <point x="149" y="0" type="line"/>
      <point x="32" y="-105" type="line"/>
      <point x="62.6088" y="-148.469"/>
      <point x="98.7263" y="-155.456"/>
      <point x="149" y="-155" type="curve"/>
      <point x="149" y="-217" type="line"/>
      <point x="66.0813" y="-217"/>
      <point x="-9.49833" y="-183.814"/>
      <point x="-37" y="-100" type="curve"/>
    </contour>
  </outline>
</glyph>
<glyph name="ij" format="2">
  <advance width="500"/>
  <unicode hex="0133"/>
  <outline>
    <contour>
      <point x="353" y="707" type="line"/>
      <point x="423" y="707" type="line"/>
      <point x="423" y="614" type="line"/>
      <point x="353" y="614" type="line"/>
    </contour>
    <contour>
      <point x="81" y="707" type="line"/>
      <point x="150" y="707" type="line"/>
      <point x="150" y="615" type="line"/>
      <point x="81" y="615" type="line"/>
    </contour>
    <contour>
      <point x="77" y="519" type="line"/>
      <point x="148" y="519" type="line"/>
      <point x="148" y="250" type="line" smooth="yes"/>
      <point x="148" y="187.08"/>
      <point x="163.905" y="103"/>
      <point x="243" y="103" type="curve" smooth="yes"/>
      <point x="324.185" y="103"/>
      <point x="353" y="181.895"/>
      <point x="353" y="251" type="curve" smooth="yes"/>
      <point x="353" y="519" type="line"/>
      <point x="423" y="519" type="line"/>
      <point x="423" y="41" type="line" smooth="yes"/>
      <point x="423" y="-66.6404"/>
      <point x="368.862" y="-162"/>
      <point x="251" y="-162" type="curve" smooth="yes"/>
      <point x="168.232" y="-162"/>
      <point x="92.8277" y="-114.075"/>
      <point x="87" y="-26" type="curve"/>
      <point x="156" y="-26" type="line"/>
      <point x="161.604" y="-71.0806"/>
      <point x="207.859" y="-101"/>
      <point x="251" y="-101" type="curve" smooth="yes"/>
      <point x="328.812" y="-101"/>
      <point x="353" y="-31.6801"/>
      <point x="353" y="35" type="curve" smooth="yes"/>
      <point x="353" y="108" type="line"/>
      <point x="328.478" y="63.6261"/>
      <point x="284.869" y="32"/>
      <point x="233" y="32" type="curve" smooth="yes"/>
      <point x="193.724" y="32"/>
      <point x="153.748" y="55.747"/>
      <point x="127" y="83" type="curve" smooth="yes"/>
      <point x="86.391" y="124.375"/>
      <point x="77" y="190.622"/>
      <point x="77" y="246" type="curve" smooth="yes"/>
    </contour>
  </outline>
</glyph>
<glyph name="Lslash" format="2">
  <advance width="541"/>
  <unicode hex="0141"/>
  <outline>
    <component base="L"/>
    <contour>
      <point x="52" y="340" type="line"/>
      <point x="53" y="398" type="line"/>
      <point x="239" y="468" type="line"/>
      <point x="239" y="410" type="line"/>
    </contour>
  </outline>
</glyph>
<glyph name="Uogonek" format="2">
  <advance width="650"/>
  <unicode hex="0172"/>
  <outline>
    <component base="U"/>
    <contour>
      <point x="501" y="61" type="curve"/>
      <point x="327" y="-106" type="line"/>
      <point x="361.539" y="-152.566"/>
      <point x="388.945" y="-156.113"/>
      <point x="444" y="-156" type="curve"/>
      <point x="444" y="-218" type="line"/>
      <point x="359.395" y="-216.954"/>
      <point x="286.539" y="-186.878"/>
      <point x="258" y="-101" type="curve"/>
      <point x="293.296" y="-71.83"/>
      <point x="342.343" y="-25.4383"/>
      <point x="379" y="-1" type="curve" smooth="yes"/>
      <point x="410.455" y="19.9698"/>
      <point x="465.882" y="43.1531"/>
    </contour>
  </outline>
</glyph>
<glyph name="uogonek" format="2">
  <advance width="534"/>
  <unicode hex="0173"/>
  <outline>
    <component base="u"/>
    <contour>
      <point x="302" y="9" type="line"/>
      <point x="407" y="42" type="line"/>
      <point x="249" y="-106" type="line"/>
      <point x="283.539" y="-152.566"/>
      <point x="310.945" y="-156.113"/>
      <point x="366" y="-156" type="curve"/>
      <point x="366" y="-218" type="line"/>
      <point x="281.395" y="-216.954"/>
      <point x="208.539" y="-186.878"/>
      <point x="180" y="-101" type="curve"/>
    </contour>
  </outline>
</glyph>
<glyph name="florin" format="2">
  <advance width="415"/>
  <unicode hex="0192"/>
  <outline>
    <contour>
      <point x="13" y="-88" type="line"/>
      <point x="89.011" y="-88"/>
      <point x="115.915" y="-85.8571"/>
      <point x="128" y="-4" type="curve" smooth="yes"/>
      <point x="181" y="355" type="line"/>
      <point x="94" y="355" type="line"/>
      <point x="94" y="420" type="line"/>
      <point x="191" y="420" type="line"/>
      <point x="212" y="555" type="line" smooth="yes"/>
      <point x="227.068" y="651.778"/>
      <point x="265.637" y="707"/>
      <point x="370" y="707" type="curve" smooth="yes"/>
      <point x="402" y="707" type="line"/>
      <point x="402" y="639" type="line"/>
      <point x="326.442" y="639"/>
      <point x="298.154" y="637.317"/>
      <point x="285" y="556" type="curve" smooth="yes"/>
      <point x="263" y="420" type="line"/>
      <point x="371" y="420" type="line"/>
      <point x="371" y="355" type="line"/>
      <point x="253" y="355" type="line"/>
      <point x="200" y="-2" type="line" smooth="yes"/>
      <point x="181.297" y="-127.981"/>
      <point x="137.083" y="-156"/>
      <point x="13" y="-156" type="curve"/>
    </contour>
  </outline>
</glyph>
<glyph name="jcaron" format="2">
  <advance width="231"/>
  <unicode hex="01F0"/>
  <outline>
    <component base="caroncmb" xOffset="116"/>
    <contour>
      <point x="-31" y="-92" type="line"/>
      <point x="35.8659" y="-92"/>
      <point x="77" y="-96.226"/>
      <point x="77" y="-15" type="curve" smooth="yes"/>
      <point x="77" y="519" type="line"/>
      <point x="146" y="519" type="line"/>
      <point x="146" y="-19" type="line" smooth="yes"/>
      <point x="146" y="-104.166"/>
      <point x="107.016" y="-156"/>
      <point x="18" y="-156" type="curve" smooth="yes"/>
      <point x="-31" y="-156" type="line"/>
    </contour>
  </outline>
</glyph>
<glyph name="ring" format="2">
  <advance width="512"/>
  <unicode hex="02DA"/>
  <outline>
    <contour>
      <point x="163" y="666" type="curve" smooth="yes"/>
      <point x="163" y="719.75"/>
      <point x="201.926" y="760"/>
      <point x="256" y="760" type="curve" smooth="yes"/>
      <point x="310.186" y="760"/>
      <point x="349" y="719.862"/>
      <point x="349" y="666" type="curve" smooth="yes"/>
      <point x="349" y="612.138"/>
      <point x="310.186" y="572"/>
      <point x="256" y="572" type="curve" smooth="yes"/>
      <point x="201.926" y="572"/>
      <point x="163" y="612.25"/>
    </contour>
    <contour>
      <point x="309" y="666" type="curve" smooth="yes"/>
      <point x="309" y="696.085"/>
      <point x="286.702" y="721"/>
      <point x="256" y="721" type="curve" smooth="yes"/>
      <point x="225.298" y="721"/>
      <point x="203" y="696.085"/>
      <point x="203" y="666" type="curve" smooth="yes"/>
      <point x="203" y="635.971"/>
      <point x="225.354" y="611"/>
      <point x="256" y="611" type="curve" smooth="yes"/>
      <point x="286.646" y="611"/>
      <point x="309" y="635.971"/>
    </contour>
  </outline>
</glyph>
<glyph name="ogonek" format="2">
  <advance width="512"/>
  <unicode hex="02DB"/>
  <outline>
    <contour>
      <point x="358" y="0" type="line"/>
      <point x="423" y="0" type="line"/>
      <point x="306" y="-105" type="line"/>
      <point x="336.609" y="-148.469"/>
      <point x="372.726" y="-155.456"/>
      <point x="423" y="-155" type="curve"/>
      <point x="423" y="-217" type="line"/>
      <point x="340.081" y="-216.389"/>
      <point x="264.502" y="-183.814"/>
      <point x="237" y="-100" type="curve"/>
    </contour>
  </outline>
</glyph>
<glyph name="brevecmb" format="2">
  <unicode hex="0306"/>
  <anchor x="0" y="519" name="_top"/>
  <outline>
    <contour>
      <point x="0" y="573" type="curve" smooth="yes"/>
      <point x="-85.0936" y="573"/>
      <point x="-127" y="624.588"/>
      <point x="-127" y="707" type="curve" smooth="yes"/>
      <point x="-127" y="725" type="line"/>
      <point x="-61" y="725" type="line"/>
      <point x="-61.013" y="720.652" type="line" smooth="yes"/>
      <point x="-61.013" y="675.583"/>
      <point x="-55.9358" y="633"/>
      <point x="0" y="633" type="curve" smooth="yes"/>
      <point x="58.1436" y="633"/>
      <point x="61.2732" y="679.174"/>
      <point x="61" y="725" type="curve"/>
      <point x="127" y="725" type="line"/>
      <point x="127" y="707" type="line" smooth="yes"/>
      <point x="127" y="624.588"/>
      <point x="85.0936" y="573"/>
    </contour>
  </outline>
</glyph>
<glyph name="ogonekcmb" format="2">
  <unicode hex="0328"/>
  <anchor x="0" y="0" name="_bottom"/>
  <outline>
    <contour>
      <point x="-12" y="0" type="line"/>
      <point x="53.0177" y="0" type="line"/>
      <point x="53.0177" y="-2.5551" type="line"/>
      <point x="-64" y="-105" type="line"/>
      <point x="-30.2936" y="-150.863"/>
      <point x="-1.07084" y="-155.383"/>
      <point x="53" y="-155" type="curve"/>
      <point x="53" y="-217" type="line"/>
      <point x="-31.4916" y="-217"/>
      <point x="-104.671" y="-185.429"/>
      <point x="-133" y="-100" type="curve"/>
    </contour>
  </outline>
</glyph>
<glyph name="Gecyr" format="2">
  <advance width="537"/>
  <unicode hex="0413"/>
  <anchor x="283" y="707" name="top"/>
  <outline>
    <contour>
      <point x="82" y="0" type="line"/>
      <point x="82" y="707" type="line"/>
      <point x="157" y="707" type="line"/>
      <point x="157" y="0" type="line"/>
    </contour>
    <contour>
      <point x="142" y="640" type="line"/>
      <point x="142" y="707" type="line"/>
      <point x="480" y="707" type="line"/>
      <point x="480" y="640" type="line"/>
    </contour>
  </outline>
  <guideline angle="90" name="vertical" x="283" y="0"/>
  <guideline angle="0" name="horizontal" x="0" y="707"/>
</glyph>
<glyph name="Decyr" format="2">
  <advance width="708"/>
  <unicode hex="0414"/>
  <outline>
    <contour>
      <point x="564" y="-170" type="line"/>
      <point x="564" y="67" type="line"/>
      <point x="639" y="67" type="line"/>
      <point x="639" y="-170" type="line"/>
    </contour>
    <contour>
      <point x="9" y="-170" type="line"/>
      <point x="9" y="67" type="line"/>
      <point x="84" y="67" type="line"/>
      <point x="84" y="-170" type="line"/>
    </contour>
    <contour>
      <point x="22" y="0" type="line"/>
      <point x="22" y="67" type="line"/>
      <point x="580.255" y="67" type="line"/>
      <point x="580.255" y="0" type="line"/>
    </contour>
    <contour>
      <point x="487" y="0" type="line"/>
      <point x="487" y="707" type="line"/>
      <point x="562" y="707" type="line"/>
      <point x="562" y="0" type="line"/>
    </contour>
    <contour>
      <point x="192" y="640" type="line"/>
      <point x="192" y="707" type="line"/>
      <point x="552" y="707" type="line"/>
      <point x="552" y="640" type="line"/>
    </contour>
    <contour>
      <point x="55" y="67" type="line"/>
      <point x="112" y="67"/>
      <point x="153" y="248"/>
      <point x="166" y="564" type="curve" smooth="yes"/>
      <point x="172" y="707" type="line"/>
      <point x="247" y="707" type="line"/>
      <point x="242" y="570" type="line" smooth="yes"/>
      <point x="228" y="196"/>
      <point x="145" y="0"/>
      <point x="55" y="0" type="curve"/>
    </contour>
  </outline>
</glyph>
<glyph name="Efcyr" format="2">
  <advance width="676"/>
  <unicode hex="0424"/>
  <anchor x="337" y="707" name="top"/>
  <outline>
    <contour>
      <point x="68" y="342" type="curve" smooth="yes"/>
      <point x="68" y="385" type="line" smooth="yes"/>
      <point x="68" y="560"/>
      <point x="153" y="656"/>
      <point x="311" y="656" type="curve"/>
      <point x="311" y="588" type="line"/>
      <point x="199" y="588"/>
      <point x="142" y="520"/>
      <point x="142" y="382" type="curve" smooth="yes"/>
      <point x="142" y="338" type="line" smooth="yes"/>
      <point x="142" y="208"/>
      <point x="199" y="140"/>
      <point x="311" y="140" type="curve"/>
      <point x="311" y="72" type="line"/>
      <point x="154" y="72"/>
      <point x="68" y="168"/>
    </contour>
    <contour>
      <point x="301" y="707" type="line"/>
      <point x="376" y="707" type="line"/>
      <point x="376" y="0" type="line"/>
      <point x="301" y="0" type="line"/>
    </contour>
    <contour>
      <point x="609" y="386" type="curve" smooth="yes"/>
      <point x="609" y="343" type="line" smooth="yes"/>
      <point x="609" y="168"/>
      <point x="524" y="72"/>
      <point x="366" y="72" type="curve"/>
      <point x="366" y="140" type="line"/>
      <point x="478" y="140"/>
      <point x="535" y="208"/>
      <point x="535" y="346" type="curve" smooth="yes"/>
      <point x="535" y="390" type="line" smooth="yes"/>
      <point x="535" y="520"/>
      <point x="478" y="588"/>
      <point x="366" y="588" type="curve"/>
      <point x="366" y="656" type="line"/>
      <point x="523" y="656"/>
      <point x="609" y="560"/>
    </contour>
  </outline>
  <guideline angle="90" name="vertical" x="335" y="0"/>
  <guideline angle="0" name="horizontal" x="0" y="707"/>
  <guideline angle="90" name="vertical" x="337" y="0"/>
  <guideline angle="0" name="horizontal" x="0" y="707"/>
  <guideline angle="90" name="vertical" x="335" y="0"/>
  <guideline angle="0" name="horizontal" x="0" y="707"/>
  <guideline angle="90" name="vertical" x="337" y="0"/>
  <guideline angle="0" name="horizontal" x="0" y="707"/>
</glyph>
<glyph name="Hardcyr" format="2">
  <advance width="698"/>
  <unicode hex="042A"/>
  <outline>
    <component base="Softcyr" xOffset="108"/>
    <contour>
      <point x="0" y="640" type="line"/>
      <point x="0" y="707" type="line"/>
      <point x="258" y="707" type="line"/>
      <point x="258" y="640" type="line"/>
    </contour>
  </outline>
</glyph>
<glyph name="vecyr" format="2">
  <advance width="505"/>
  <unicode hex="0432"/>
  <anchor x="255" y="707" name="top"/>
  <outline>
    <component base="dotlessi" xOffset="-8"/>
    <contour>
      <point x="444.371" y="142.334" type="curve" smooth="yes"/>
      <point x="444.371" y="203.247"/>
      <point x="414.859" y="248.9"/>
      <point x="355.092" y="266.812" type="curve"/>
      <point x="406.614" y="283.439"/>
      <point x="436.187" y="327.523"/>
      <point x="436.187" y="380.874" type="curve" smooth="yes"/>
      <point x="436.187" y="476.546"/>
      <point x="367.432" y="519"/>
      <point x="273.436" y="519" type="curve" smooth="yes"/>
      <point x="122.219" y="519" type="line"/>
      <point x="122.219" y="467.159" type="line"/>
      <point x="261.485" y="467.159" type="line" smooth="yes"/>
      <point x="322.684" y="467.159"/>
      <point x="366.388" y="443.908"/>
      <point x="366.388" y="377.898" type="curve" smooth="yes"/>
      <point x="366.388" y="312.212"/>
      <point x="320.86" y="290.64"/>
      <point x="260.741" y="290.64" type="curve" smooth="yes"/>
      <point x="122.219" y="290.64" type="line"/>
      <point x="122.219" y="238.53" type="line"/>
      <point x="265.205" y="238.53" type="line" smooth="yes"/>
      <point x="328.746" y="238.53"/>
      <point x="374.571" y="214.49"/>
      <point x="374.571" y="146.054" type="curve" smooth="yes"/>
      <point x="374.571" y="76.4475"/>
      <point x="329.266" y="51.7365"/>
      <point x="264.461" y="51.8503" type="curve" smooth="yes"/>
      <point x="122.219" y="52.1" type="line"/>
      <point x="122.219" y="0" type="line"/>
      <point x="277.923" y="0" type="line" smooth="yes"/>
      <point x="374.259" y="0"/>
      <point x="444.371" y="44.7565"/>
    </contour>
  </outline>
  <guideline angle="90" name="vertical" x="208.662" y="0"/>
  <guideline angle="0" name="horizontal" x="0" y="519"/>
</glyph>
<glyph name="gecyr" format="2">
  <advance width="443"/>
  <unicode hex="0433"/>
  <anchor x="235" y="519" name="top"/>
  <outline>
    <component base="dotlessi"/>
    <contour>
      <point x="85" y="467" type="line"/>
      <point x="85" y="519" type="line"/>
      <point x="405.828" y="519" type="line"/>
      <point x="405.828" y="467" type="line"/>
    </contour>
  </outline>
  <guideline angle="90" name="vertical" x="235" y="0"/>
  <guideline angle="0" name="horizontal" x="0" y="519"/>
</glyph>
<glyph name="icyr" format="2">
  <advance width="547"/>
  <unicode hex="0438"/>
  <anchor x="270" y="519" name="top"/>
  <outline>
    <contour>
      <point x="409.701" y="519" type="curve"/>
      <point x="469.701" y="519" type="line"/>
      <point x="469.701" y="0" type="line"/>
      <point x="399.701" y="0" type="line"/>
      <point x="399.701" y="378.966" type="line" smooth="yes"/>
      <point x="399.701" y="418.714"/>
      <point x="406.401" y="479.389"/>
    </contour>
    <contour>
      <point x="77" y="519" type="line"/>
      <point x="147" y="519" type="line"/>
      <point x="147" y="140.307" type="line" smooth="yes"/>
      <point x="147" y="100.469"/>
      <point x="142.885" y="39.7967"/>
      <point x="137" y="0" type="curve"/>
      <point x="77" y="0" type="line"/>
    </contour>
    <contour>
      <point x="157" y="0" type="line"/>
      <point x="133" y="0" type="line"/>
      <point x="133" y="93.6578" type="line"/>
      <point x="147" y="94" type="line"/>
      <point x="153.061" y="107.504"/>
      <point x="161.526" y="125.317"/>
      <point x="170.046" y="140.004" type="curve" smooth="yes"/>
      <point x="389.701" y="518.649" type="line"/>
      <point x="413.701" y="519" type="line"/>
      <point x="413.701" y="425.013" type="line"/>
      <point x="399.701" y="424.649" type="line"/>
      <point x="393.344" y="408.278"/>
      <point x="388.968" y="399.873"/>
      <point x="376.882" y="379.039" type="curve" smooth="yes"/>
    </contour>
  </outline>
  <guideline angle="0" x="0" y="120"/>
  <guideline angle="0" x="0" y="399"/>
  <guideline angle="90" name="vertical" x="270" y="0"/>
  <guideline angle="0" name="horizontal" x="0" y="519"/>
</glyph>
<glyph name="tsecyr" format="2">
  <advance width="523"/>
  <unicode hex="0446"/>
  <outline>
    <component base="dotlessi" xOffset="-8"/>
    <component base="dotlessi" xOffset="284.701" yOffset="-2.27374e-13"/>
    <contour>
      <point x="90" y="0" type="line"/>
      <point x="90" y="52" type="line"/>
      <point x="410.828" y="52" type="line"/>
      <point x="410.828" y="0" type="line"/>
    </contour>
    <contour>
      <point x="438" y="-170" type="line"/>
      <point x="438" y="52" type="line"/>
      <point x="513" y="52" type="line"/>
      <point x="513" y="-170" type="line"/>
    </contour>
  </outline>
</glyph>
<glyph name="checyr" format="2">
  <advance width="534"/>
  <unicode hex="0447"/>
  <outline>
    <contour>
      <point x="388" y="244.01" type="line"/>
      <point x="366.75" y="224.237"/>
      <point x="330.871" y="216"/>
      <point x="266" y="216" type="curve" smooth="yes"/>
      <point x="184.919" y="216"/>
      <point x="146" y="271.347"/>
      <point x="146" y="348" type="curve" smooth="yes"/>
      <point x="146" y="519" type="line"/>
      <point x="76" y="519" type="line"/>
      <point x="76" y="338" type="line" smooth="yes"/>
      <point x="76" y="228.343"/>
      <point x="133.894" y="154"/>
      <point x="248" y="154" type="curve" smooth="yes"/>
      <point x="312.129" y="154"/>
      <point x="364.823" y="164.389"/>
      <point x="397.147" y="183.404" type="curve"/>
      <point x="396.681" y="244.001" type="line"/>
    </contour>
    <contour>
      <point x="457" y="0" type="line"/>
      <point x="457" y="519" type="line"/>
      <point x="388" y="519" type="line"/>
      <point x="388" y="0" type="line"/>
    </contour>
  </outline>
</glyph>
<glyph name="shchacyr" format="2">
  <advance width="785"/>
  <unicode hex="0449"/>
  <outline>
    <contour>
      <point x="700" y="-170" type="line"/>
      <point x="700" y="52" type="line"/>
      <point x="775" y="52" type="line"/>
      <point x="775" y="-170" type="line"/>
    </contour>
    <contour>
      <point x="77" y="519" type="line"/>
      <point x="147" y="519" type="line"/>
      <point x="147" y="0" type="line"/>
      <point x="77" y="0" type="line"/>
    </contour>
    <contour>
      <point x="632.135" y="519" type="line"/>
      <point x="702.135" y="519" type="line"/>
      <point x="702.135" y="0" type="line"/>
      <point x="632.135" y="0" type="line"/>
    </contour>
    <contour>
      <point x="90" y="0" type="line"/>
      <point x="90" y="52" type="line"/>
      <point x="683.201" y="52" type="line"/>
      <point x="683.201" y="0" type="line"/>
    </contour>
    <contour>
      <point x="355.034" y="519" type="line"/>
      <point x="425.034" y="519" type="line"/>
      <point x="425.034" y="0" type="line"/>
      <point x="355.034" y="0" type="line"/>
    </contour>
  </outline>
</glyph>
<glyph name="ereversedcyr" format="2">
  <advance width="515"/>
  <unicode hex="044D"/>
  <anchor x="259" y="519" name="top"/>
  <outline>
    <contour>
      <point x="454.003" y="207" type="curve" smooth="yes"/>
      <point x="454.003" y="313" type="line" smooth="yes"/>
      <point x="454.003" y="445.586"/>
      <point x="388.898" y="526"/>
      <point x="252.003" y="526" type="curve" smooth="yes"/>
      <point x="140.709" y="526"/>
      <point x="58.4471" y="465.031"/>
      <point x="59.0028" y="348" type="curve"/>
      <point x="127.003" y="348" type="line"/>
      <point x="125.892" y="424.081"/>
      <point x="176.259" y="463"/>
      <point x="249.003" y="463" type="curve" smooth="yes"/>
      <point x="350.484" y="463"/>
      <point x="384.003" y="402.571"/>
      <point x="384.003" y="309" type="curve" smooth="yes"/>
      <point x="384.003" y="211" type="line" smooth="yes"/>
      <point x="384.003" y="118.027"/>
      <point x="351.679" y="56"/>
      <point x="250.003" y="56" type="curve" smooth="yes"/>
      <point x="176.962" y="56"/>
      <point x="125.848" y="94.2054"/>
      <point x="127.003" y="171" type="curve"/>
      <point x="59.0028" y="171" type="line"/>
      <point x="59.0028" y="167" type="line" smooth="yes"/>
      <point x="59.0028" y="54.5655"/>
      <point x="145.077" y="-6"/>
      <point x="251.003" y="-6" type="curve" smooth="yes"/>
      <point x="388.421" y="-6"/>
      <point x="454.003" y="73.5175"/>
    </contour>
    <contour>
      <point x="414.003" y="246" type="line"/>
      <point x="414.003" y="298" type="line"/>
      <point x="204.175" y="298" type="line"/>
      <point x="204.175" y="246" type="line"/>
    </contour>
  </outline>
  <guideline angle="90" name="vertical" x="259" y="0"/>
  <guideline angle="0" name="horizontal" x="0" y="519"/>
</glyph>
<glyph name="yucyr" format="2">
  <advance width="708"/>
  <unicode hex="044E"/>
  <anchor x="491" y="519" name="top"/>
  <outline>
    <component base="dotlessi" xOffset="-8"/>
    <component base="o" xOffset="191"/>
    <contour>
      <point x="122" y="246" type="line"/>
      <point x="122" y="298" type="line"/>
      <point x="283.74" y="298" type="line"/>
      <point x="283.74" y="246" type="line"/>
    </contour>
  </outline>
  <guideline angle="90" name="vertical" x="112" y="0"/>
  <guideline angle="0" name="horizontal" x="0" y="519"/>
  <guideline angle="90" name="vertical" x="491" y="0"/>
  <guideline angle="0" name="horizontal" x="0" y="519"/>
</glyph>
<glyph name="yacyr" format="2">
  <advance width="501"/>
  <unicode hex="044F"/>
  <outline>
    <component base="dotlessi" xScale="-1" xOffset="508.371"/>
    <contour>
      <point x="200.027" y="283.492" type="line"/>
      <point x="190.564" y="238.53" type="line"/>
      <point x="105.667" y="253.859"/>
      <point x="64.1839" y="300.583"/>
      <point x="64.1839" y="380.874" type="curve" smooth="yes"/>
      <point x="64.1839" y="476.546"/>
      <point x="132.939" y="519"/>
      <point x="226.935" y="519" type="curve" smooth="yes"/>
      <point x="378.151" y="519" type="line"/>
      <point x="378.151" y="467.159" type="line"/>
      <point x="238.886" y="467.159" type="line" smooth="yes"/>
      <point x="177.687" y="467.159"/>
      <point x="133.983" y="443.908"/>
      <point x="133.983" y="377.898" type="curve" smooth="yes"/>
      <point x="133.983" y="312.212"/>
      <point x="179.51" y="290.64"/>
      <point x="239.629" y="290.64" type="curve" smooth="yes"/>
      <point x="378.151" y="290.64" type="line"/>
      <point x="378.151" y="238.53" type="line"/>
      <point x="185.165" y="238.53" type="line"/>
      <point x="267.665" y="267.079" type="line"/>
      <point x="138.329" y="0" type="line"/>
      <point x="60.8967" y="0" type="line"/>
    </contour>
  </outline>
</glyph>
<glyph name="ljecyr" format="2">
  <advance width="739"/>
  <unicode hex="0459"/>
  <outline>
    <component base="elcyr"/>
    <contour>
      <point x="678.371" y="142.334" type="curve" smooth="yes"/>
      <point x="678.371" y="231.55"/>
      <point x="611.98" y="290.64"/>
      <point x="511.741" y="290.64" type="curve" smooth="yes"/>
      <point x="356.219" y="290.64" type="line"/>
      <point x="356.219" y="238.53" type="line"/>
      <point x="499.205" y="238.53" type="line" smooth="yes"/>
      <point x="562.746" y="238.53"/>
      <point x="608.571" y="214.49"/>
      <point x="608.571" y="146.054" type="curve" smooth="yes"/>
      <point x="608.571" y="76.4475"/>
      <point x="563.266" y="51.7365"/>
      <point x="498.461" y="51.8503" type="curve" smooth="yes"/>
      <point x="356.219" y="52.1" type="line"/>
      <point x="356.219" y="0" type="line"/>
      <point x="511.923" y="0" type="line" smooth="yes"/>
      <point x="617.145" y="0"/>
      <point x="678.371" y="52.3554"/>
    </contour>
    <contour>
      <point x="341" y="0" type="line"/>
      <point x="411" y="0" type="line"/>
      <point x="411" y="519" type="line"/>
      <point x="341" y="519" type="line"/>
    </contour>
  </outline>
</glyph>
<glyph name="njecyr" format="2">
  <advance width="778"/>
  <unicode hex="045A"/>
  <outline>
    <contour>
      <point x="717.371" y="142.334" type="curve" smooth="yes"/>
      <point x="717.371" y="231.55"/>
      <point x="650.98" y="290.64"/>
      <point x="550.741" y="290.64" type="curve" smooth="yes"/>
      <point x="395.219" y="290.64" type="line"/>
      <point x="395.219" y="238.53" type="line"/>
      <point x="538.205" y="238.53" type="line" smooth="yes"/>
      <point x="601.746" y="238.53"/>
      <point x="647.571" y="214.49"/>
      <point x="647.571" y="146.054" type="curve" smooth="yes"/>
      <point x="647.571" y="76.4475"/>
      <point x="602.266" y="51.7365"/>
      <point x="537.461" y="51.8503" type="curve" smooth="yes"/>
      <point x="395.219" y="52.1" type="line"/>
      <point x="395.219" y="0" type="line"/>
      <point x="550.923" y="0" type="line" smooth="yes"/>
      <point x="656.145" y="0"/>
      <point x="717.371" y="52.3554"/>
    </contour>
    <contour>
      <point x="380" y="0" type="line"/>
      <point x="450" y="0" type="line"/>
      <point x="450" y="519" type="line"/>
      <point x="380" y="519" type="line"/>
    </contour>
    <contour>
      <point x="77" y="0" type="line"/>
      <point x="147" y="0" type="line"/>
      <point x="147" y="519" type="line"/>
      <point x="77" y="519" type="line"/>
    </contour>
    <contour>
      <point x="379.701" y="0" type="line"/>
      <point x="449.701" y="0" type="line"/>
      <point x="449.701" y="519" type="line"/>
      <point x="379.701" y="519" type="line"/>
    </contour>
    <contour>
      <point x="420.828" y="246" type="line"/>
      <point x="420.828" y="298" type="line"/>
      <point x="100" y="298" type="line"/>
      <point x="100" y="246" type="line"/>
    </contour>
  </outline>
</glyph>
<glyph name="perthousand" format="2">
  <advance width="1184"/>
  <unicode hex="2030"/>
  <outline>
    <contour>
      <point x="43" y="425" type="curve" smooth="yes"/>
      <point x="43" y="567" type="line" smooth="yes"/>
      <point x="43" y="650.911"/>
      <point x="74.0861" y="714"/>
      <point x="167" y="714" type="curve" smooth="yes"/>
      <point x="261.911" y="714"/>
      <point x="292" y="653.27"/>
      <point x="292" y="567" type="curve" smooth="yes"/>
      <point x="292" y="425" type="line" smooth="yes"/>
      <point x="292" y="338.36"/>
      <point x="264.339" y="273"/>
      <point x="167" y="273" type="curve" smooth="yes"/>
      <point x="70.3061" y="273"/>
      <point x="43" y="339.217"/>
    </contour>
    <contour>
      <point x="584" y="707" type="line"/>
      <point x="648" y="707" type="line"/>
      <point x="266" y="0" type="line"/>
      <point x="202" y="0" type="line"/>
    </contour>
    <contour>
      <point x="221" y="428" type="curve" smooth="yes"/>
      <point x="221" y="561" type="line" smooth="yes"/>
      <point x="221" y="600.894"/>
      <point x="219.385" y="653"/>
      <point x="167" y="653" type="curve" smooth="yes"/>
      <point x="112.862" y="653"/>
      <point x="113" y="601.933"/>
      <point x="113" y="561" type="curve" smooth="yes"/>
      <point x="113" y="428" type="line" smooth="yes"/>
      <point x="113" y="387.255"/>
      <point x="112.572" y="333"/>
      <point x="167" y="333" type="curve" smooth="yes"/>
      <point x="221.49" y="333"/>
      <point x="221" y="387.072"/>
    </contour>
    <contour>
      <point x="558" y="145" type="curve" smooth="yes"/>
      <point x="558" y="288" type="line" smooth="yes"/>
      <point x="558" y="371.606"/>
      <point x="589.706" y="434"/>
      <point x="682" y="434" type="curve" smooth="yes"/>
      <point x="777.35" y="434"/>
      <point x="807" y="375.226"/>
      <point x="807" y="288" type="curve" smooth="yes"/>
      <point x="807" y="145" type="line" smooth="yes"/>
      <point x="807" y="58.6519"/>
      <point x="778.74" y="-6"/>
      <point x="682" y="-6" type="curve" smooth="yes"/>
      <point x="586.062" y="-6"/>
      <point x="558" y="59.6194"/>
    </contour>
    <contour>
      <point x="893" y="145" type="curve" smooth="yes"/>
      <point x="893" y="288" type="line" smooth="yes"/>
      <point x="893" y="371.606"/>
      <point x="924.706" y="434"/>
      <point x="1017" y="434" type="curve" smooth="yes"/>
      <point x="1112.35" y="434"/>
      <point x="1142" y="375.226"/>
      <point x="1142" y="288" type="curve" smooth="yes"/>
      <point x="1142" y="145" type="line" smooth="yes"/>
      <point x="1142" y="58.6519"/>
      <point x="1113.74" y="-6"/>
      <point x="1017" y="-6" type="curve" smooth="yes"/>
      <point x="921.062" y="-6"/>
      <point x="893" y="59.6194"/>
    </contour>
    <contour>
      <point x="736" y="148" type="curve" smooth="yes"/>
      <point x="736" y="282" type="line" smooth="yes"/>
      <point x="736" y="320.95"/>
      <point x="733.539" y="374"/>
      <point x="682" y="374" type="curve" smooth="yes"/>
      <point x="628.701" y="374"/>
      <point x="628" y="321.969"/>
      <point x="628" y="282" type="curve" smooth="yes"/>
      <point x="628" y="148" type="line" smooth="yes"/>
      <point x="628" y="107.255"/>
      <point x="627.572" y="53"/>
      <point x="682" y="53" type="curve" smooth="yes"/>
      <point x="736.49" y="53"/>
      <point x="736" y="107.072"/>
    </contour>
    <contour>
      <point x="1071" y="148" type="curve" smooth="yes"/>
      <point x="1071" y="282" type="line" smooth="yes"/>
      <point x="1071" y="320.95"/>
      <point x="1068.54" y="374"/>
      <point x="1017" y="374" type="curve" smooth="yes"/>
      <point x="963.701" y="374"/>
      <point x="963" y="321.969"/>
      <point x="963" y="282" type="curve" smooth="yes"/>
      <point x="963" y="148" type="line" smooth="yes"/>
      <point x="963" y="107.255"/>
      <point x="962.572" y="53"/>
      <point x="1017" y="53" type="curve" smooth="yes"/>
      <point x="1071.49" y="53"/>
      <point x="1071" y="107.072"/>
    </contour>
  </outline>
</glyph>
<glyph name="five.tosf" format="2">
  <advance width="524"/>
  <outline>
    <contour>
      <point x="80" y="5" type="curve"/>
      <point x="151" y="5" type="line"/>
      <point x="150.79" y="-65.7165"/>
      <point x="186.26" y="-105"/>
      <point x="258" y="-105" type="curve" smooth="yes"/>
      <point x="357.601" y="-105"/>
      <point x="365.12" y="-25.7526"/>
      <point x="365.12" y="53.3472" type="curve" smooth="yes"/>
      <point x="365.12" y="132.692"/>
      <point x="362.585" y="219"/>
      <point x="259" y="219" type="curve" smooth="yes"/>
      <point x="209.812" y="219"/>
      <point x="172.139" y="193.944"/>
      <point x="156" y="147" type="curve"/>
      <point x="91" y="147" type="line"/>
      <point x="91" y="519" type="line"/>
      <point x="429" y="519" type="line"/>
      <point x="429" y="450" type="line"/>
      <point x="159" y="450" type="line"/>
      <point x="159" y="241" type="line"/>
      <point x="185.13" y="271.01"/>
      <point x="229.847" y="287"/>
      <point x="269" y="287" type="curve" smooth="yes"/>
      <point x="421.596" y="287"/>
      <point x="439.899" y="176.323"/>
      <point x="439.899" y="58.4849" type="curve" smooth="yes"/>
      <point x="439.899" y="22" type="line" smooth="yes"/>
      <point x="439.899" y="-93.2582"/>
      <point x="379.062" y="-172"/>
      <point x="259" y="-172" type="curve" smooth="yes"/>
      <point x="142.859" y="-172"/>
      <point x="79.8695" y="-112.012"/>
    </contour>
  </outline>
</glyph>
<glyph name="four.numr" format="2">
  <advance width="339"/>
  <outline>
    <contour>
      <point x="308" y="356" type="line"/>
      <point x="268" y="356" type="line"/>
      <point x="268" y="280" type="line"/>
      <point x="198" y="280" type="line"/>
      <point x="198" y="356" type="line"/>
      <point x="37" y="356" type="line"/>
      <point x="37" y="417" type="line"/>
      <point x="157" y="707" type="line"/>
      <point x="226" y="707" type="line"/>
      <point x="108" y="417" type="line"/>
      <point x="198" y="417" type="line"/>
      <point x="198" y="517" type="line"/>
      <point x="268" y="517" type="line"/>
      <point x="268" y="417" type="line"/>
      <point x="308" y="417" type="line"/>
    </contour>
  </outline>
</glyph>
<glyph name="one.numr" format="2">
  <advance width="227"/>
  <outline>
    <contour>
      <point x="101" y="632" type="line"/>
      <point x="27" y="575" type="line"/>
      <point x="27" y="651" type="line"/>
      <point x="101" y="707" type="line"/>
      <point x="172" y="707" type="line"/>
      <point x="172" y="280" type="line"/>
      <point x="101" y="280" type="line"/>
    </contour>
  </outline>
</glyph>
<glyph name="one.tosf" format="2">
  <advance width="524"/>
  <outline>
    <contour>
      <point x="305" y="443" type="line"/>
      <point x="105" y="322" type="line"/>
      <point x="105" y="408" type="line"/>
      <point x="304" y="529" type="line"/>
      <point x="379" y="529" type="line"/>
      <point x="379" y="0" type="line"/>
      <point x="305" y="0" type="line"/>
    </contour>
  </outline>
</glyph>
<glyph name="three.dnom" format="2">
  <advance width="326"/>
  <outline>
    <contour>
      <point x="40" y="115" type="curve"/>
      <point x="101" y="115" type="line"/>
      <point x="101" y="75.8987"/>
      <point x="116.527" y="50"/>
      <point x="159" y="50" type="curve" smooth="yes"/>
      <point x="208.434" y="50"/>
      <point x="217" y="85.8611"/>
      <point x="217" y="127" type="curve" smooth="yes"/>
      <point x="217" y="183.789"/>
      <point x="180.81" y="193"/>
      <point x="133" y="193" type="curve"/>
      <point x="133" y="250" type="line"/>
      <point x="186.589" y="250"/>
      <point x="210" y="259.236"/>
      <point x="210" y="318" type="curve" smooth="yes"/>
      <point x="210" y="350.262"/>
      <point x="192.812" y="377"/>
      <point x="158" y="377" type="curve" smooth="yes"/>
      <point x="116.015" y="377"/>
      <point x="104" y="350.326"/>
      <point x="104" y="313" type="curve"/>
      <point x="42" y="313" type="line"/>
      <point x="42" y="325" type="line" smooth="yes"/>
      <point x="42" y="395.209"/>
      <point x="92.9734" y="434"/>
      <point x="160" y="434" type="curve" smooth="yes"/>
      <point x="237.427" y="434"/>
      <point x="278" y="389.751"/>
      <point x="278" y="314" type="curve" smooth="yes"/>
      <point x="278" y="277.342"/>
      <point x="258.184" y="242.596"/>
      <point x="225" y="226" type="curve"/>
      <point x="272.517" y="204.916"/>
      <point x="284" y="161.798"/>
      <point x="284" y="114" type="curve" smooth="yes"/>
      <point x="284" y="41.0536"/>
      <point x="231.513" y="-6"/>
      <point x="160" y="-6" type="curve" smooth="yes"/>
      <point x="79.3917" y="-6"/>
      <point x="40" y="35.862"/>
    </contour>
  </outline>
</glyph>
<glyph name="three.tosf" format="2">
  <advance width="524"/>
  <outline>
    <contour>
      <point x="70.0339" y="23" type="line"/>
      <point x="145" y="23" type="line"/>
      <point x="144.756" y="-55.9051"/>
      <point x="182.492" y="-96"/>
      <point x="257" y="-96" type="curve" smooth="yes"/>
      <point x="324.608" y="-96"/>
      <point x="373" y="-48.8593"/>
      <point x="373" y="17" type="curve" smooth="yes"/>
      <point x="373" y="119.472"/>
      <point x="325.894" y="163"/>
      <point x="215" y="163" type="curve"/>
      <point x="215" y="230" type="line"/>
      <point x="325.218" y="230"/>
      <point x="361" y="261.86"/>
      <point x="361" y="360" type="curve" smooth="yes"/>
      <point x="361" y="420.56"/>
      <point x="317.935" y="462"/>
      <point x="255" y="462" type="curve" smooth="yes"/>
      <point x="184.204" y="462"/>
      <point x="149.737" y="421.953"/>
      <point x="150" y="340" type="curve"/>
      <point x="79" y="340" type="line"/>
      <point x="79" y="359" type="line" smooth="yes"/>
      <point x="79" y="464.581"/>
      <point x="146.45" y="529"/>
      <point x="257" y="529" type="curve" smooth="yes"/>
      <point x="362.228" y="529"/>
      <point x="435" y="461.543"/>
      <point x="435" y="364" type="curve" smooth="yes"/>
      <point x="435" y="282.541"/>
      <point x="406.256" y="230.867"/>
      <point x="346" y="204" type="curve"/>
      <point x="414.61" y="179.156"/>
      <point x="447" y="120.469"/>
      <point x="447" y="21" type="curve" smooth="yes"/>
      <point x="447" y="-88.0942"/>
      <point x="369.863" y="-162"/>
      <point x="256" y="-162" type="curve" smooth="yes"/>
      <point x="136.799" y="-162"/>
      <point x="70.034" y="-98.0753"/>
      <point x="70.034" y="16.0552" type="curve" smooth="yes"/>
    </contour>
  </outline>
</glyph>
<glyph name="yucyr.loclBGR" format="2">
  <advance width="688"/>
  <anchor x="491" y="519" name="top"/>
  <outline>
    <component base="o" xOffset="171"/>
    <contour>
      <point x="122" y="246" type="line"/>
      <point x="122" y="298" type="line"/>
      <point x="263.74" y="298" type="line"/>
      <point x="263.74" y="246" type="line"/>
    </contour>
    <contour>
      <point x="77" y="707" type="line"/>
      <point x="147" y="707" type="line"/>
      <point x="147" y="0" type="line"/>
      <point x="77" y="0" type="line"/>
    </contour>
  </outline>
  <guideline angle="90" name="vertical" x="112" y="0"/>
  <guideline angle="0" name="horizontal" x="0" y="519"/>
  <guideline angle="90" name="vertical" x="491" y="0"/>
  <guideline angle="0" name="horizontal" x="0" y="519"/>
  <guideline angle="90" name="vertical" x="112" y="0"/>
  <guideline angle="0" name="horizontal" x="0" y="519"/>
</glyph>
<glyph name="zero.dnom" format="2">
  <advance width="334"/>
  <outline>
    <contour>
      <point x="43" y="145" type="curve" smooth="yes"/>
      <point x="43" y="288" type="line" smooth="yes"/>
      <point x="43" y="371.606"/>
      <point x="74.7057" y="434"/>
      <point x="167" y="434" type="curve" smooth="yes"/>
      <point x="262.35" y="434"/>
      <point x="292" y="375.226"/>
      <point x="292" y="288" type="curve" smooth="yes"/>
      <point x="292" y="145" type="line" smooth="yes"/>
      <point x="292" y="58.6519"/>
      <point x="263.74" y="-6"/>
      <point x="167" y="-6" type="curve" smooth="yes"/>
      <point x="71.0622" y="-6"/>
      <point x="43" y="59.6194"/>
    </contour>
    <contour>
      <point x="221" y="148" type="curve" smooth="yes"/>
      <point x="221" y="282" type="line" smooth="yes"/>
      <point x="221" y="320.95"/>
      <point x="218.539" y="374"/>
      <point x="167" y="374" type="curve" smooth="yes"/>
      <point x="113.701" y="374"/>
      <point x="113" y="321.969"/>
      <point x="113" y="282" type="curve" smooth="yes"/>
      <point x="113" y="148" type="line" smooth="yes"/>
      <point x="113" y="107.255"/>
      <point x="112.572" y="53"/>
      <point x="167" y="53" type="curve" smooth="yes"/>
      <point x="221.49" y="53"/>
      <point x="221" y="107.072"/>
    </contour>
  </outline>
</glyph>
